<svg height="383pt" viewBox="0 0 383 383.408" width="383pt" xmlns="http://www.w3.org/2000/svg"><path d="m318.84375 320-9.359375 12.558594c-9.601563 12.722656-22.480469 22.640625-37.28125 28.5625-12.160156 4.878906-25.359375 7.117187-38.398437 6-53.839844-4.640625-102.640626-27.121094-140.320313-61.359375-2.800781-2.5625-5.441406-5.121094-8-7.601563-2.558594-2.640625-5.121094-5.28125-7.601563-8-2.480468-2.640625-4.796874-5.359375-7.199218-8.238281-30.238282-36.5625-50-82.320313-54.238282-132.402344-.160156-2.160156-.242187-4.320312-.242187-6.480469 0-10.878906 2.242187-21.597656 6.242187-31.679687 5.917969-14.800781 15.839844-27.679687 28.640626-37.28125l12.476562-9.359375 64 64-23.039062 23.042969c-9.359376 9.359375-9.359376 24.558593 0 33.917969l93.359374 93.359374c9.359376 9.441407 24.5625 9.441407 33.921876 0l23.039062-22.960937zm0 0" fill="#ff7043"/><g fill="#012e52"><path d="m222.84375 144h32c8.832031 0 16-7.167969 16-16s-7.167969-16-16-16h-32v-24h16c17.648438 0 32-14.351562 32-32v-24c0-17.648438-14.351562-32-32-32h-32c-8.832031 0-16 7.167969-16 16s7.167969 16 16 16h32v24h-16c-17.648438 0-32 14.351562-32 32v24c0 17.648438 14.351562 32 32 32zm0 0"/><path d="m366.84375 0c-8.832031 0-16 7.167969-16 16v32h-16v-32c0-8.832031-7.167969-16-16-16s-16 7.167969-16 16v32c0 17.648438 14.351562 32 32 32h16v48c0 8.832031 7.167969 16 16 16s16-7.167969 16-16v-112c0-8.832031-7.167969-16-16-16zm0 0"/><path d="m58.355469 292.121094c.007812.015625.023437.03125.03125.046875 2.609375 3.128906 5.136719 6.078125 7.671875 8.785156 2.59375 2.839844 5.265625 5.597656 8.289062 8.703125 2.664063 2.582031 5.417969 5.246094 8.375 7.953125 41.210938 37.445313 94.378906 60.6875 149.714844 65.460937 2.628906.226563 5.277344.335938 7.941406.335938 12.648438 0 25.5625-2.519531 37.769532-7.421875 17.449218-6.984375 32.703124-18.664063 44.167968-33.855469l9.359375-12.5625c4.753907-6.375 4.105469-15.261718-1.519531-20.878906l-64-63.917969c-6.242188-6.242187-16.34375-6.242187-22.601562-.007812l-23.109376 23.015625c-2.023437 2.039062-4.386718 2.34375-5.601562 2.34375s-3.574219-.304688-5.648438-2.394532l-93.359374-93.359374c-3.113282-3.109376-3.113282-8.175782 0-11.296876l23.039062-23.039062c6.25-6.246094 6.25-16.375 0-22.625l-64-64c-5.632812-5.628906-14.542969-6.261719-20.910156-1.484375l-12.488282 9.359375c-15.175781 11.382812-26.898437 26.65625-33.90625 44.175781-4.886718 12.328125-7.367187 24.976563-7.367187 37.582031 0 2.554688.097656 5.113282.304687 7.832032 4.390626 51.960937 24.398438 100.800781 57.847657 141.25zm-21.054688-174.816406c4.816407-12.039063 12.894531-22.5625 23.375-30.425782l1.382813-1.03125 42.875 42.871094-11.730469 11.730469c-15.589844 15.589843-15.589844 40.949219 0 56.542969l93.3125 93.3125c7.550781 7.617187 17.617187 11.816406 28.328125 11.816406s20.777344-4.199219 28.257812-11.753906l11.726563-11.6875 42.910156 42.855468-1.03125 1.386719c-7.886719 10.453125-18.421875 18.527344-30.472656 23.351563-10.167969 4.078124-20.933594 5.765624-31.0625 4.902343-48.390625-4.167969-94.886719-24.503906-130.894531-57.222656-2.679688-2.457031-5.210938-4.90625-7.320313-6.9375-2.449219-2.519531-4.890625-5.046875-7.425781-7.816406-2.253906-2.40625-4.359375-4.878907-6.542969-7.503907-29.265625-35.390624-46.761719-78.109374-50.59375-123.367187-.132812-1.769531-.199219-3.527344-.199219-5.296875.007813-8.542969 1.730469-17.214844 5.105469-25.726562zm0 0"/></g></svg>